<svg xmlns="http://www.w3.org/2000/svg" xmlns:xlink="http://www.w3.org/1999/xlink" width="500" zoomAndPan="magnify" viewBox="0 0 375 374.999991" height="500" preserveAspectRatio="xMidYMid meet" version="1.0"><defs><g/><clipPath id="id1"><path d="M 5.4375 155.539062 L 60.9375 155.539062 L 60.9375 211.789062 L 5.4375 211.789062 Z M 5.4375 155.539062 " clip-rule="nonzero"/></clipPath></defs><rect x="-37.5" width="450" fill="#ffffff" y="-37.499999" height="449.999989" fill-opacity="1"/><rect x="-37.5" width="450" fill="#ffffff" y="-37.499999" height="449.999989" fill-opacity="1"/><rect x="-37.5" width="450" fill="#ffffff" y="-37.499999" height="449.999989" fill-opacity="1"/><rect x="-37.5" width="450" fill="#ffffff" y="-37.499999" height="449.999989" fill-opacity="1"/><g clip-path="url(#id1)"><path stroke-linecap="round" transform="matrix(0.770421, 0, 0, 0.771459, -25.440536, 125.19087)" fill="none" stroke-linejoin="round" d="M 104.99934 58.498856 C 117.360687 78.980555 105.91199 105.649802 81.001695 109.741078 C 64.00104 112.531045 47.10179 101.948412 42.999932 83.021196 C 38.710473 63.749665 51.127594 46.690866 70.501141 42.002101 C 81.762237 39.267833 97.81982 46.802262 104.502452 57.997574 " stroke="#000000" stroke-width="4" stroke-opacity="1" stroke-miterlimit="4"/></g><path stroke-linecap="round" transform="matrix(0.770421, 0, 0, 0.771459, -25.440536, 125.19087)" fill="none" stroke-linejoin="round" d="M 67.499534 58.498856 C 79.83553 59.405216 92.166456 59.405216 104.502452 58.498856 " stroke="#000000" stroke-width="4" stroke-opacity="1" stroke-miterlimit="4"/><path stroke-linecap="round" transform="matrix(0.770421, 0, 0, 0.771459, -25.440536, 125.19087)" fill="none" stroke-linejoin="round" d="M 47.99923 93.497497 C 54.311731 92.499995 60.669864 92.970897 66.997576 93.051912 C 72.828401 93.127864 78.689646 92.337964 84.50019 93.497497 " stroke="#000000" stroke-width="4" stroke-opacity="1" stroke-miterlimit="4"/><path stroke-linecap="round" transform="matrix(0.770421, 0, 0, 0.771459, -25.440536, 125.19087)" fill="none" stroke-linejoin="round" d="M 86.497881 59.997641 C 92.698836 70.479004 98.002351 81.481904 104.99934 91.502493 " stroke="#000000" stroke-width="4" stroke-opacity="1" stroke-miterlimit="4"/><path stroke-linecap="round" transform="matrix(0.770421, 0, 0, 0.771459, -25.440536, 125.19087)" fill="none" stroke-linejoin="round" d="M 47.000384 60.498923 C 54.002444 70.499258 59.300888 81.502158 65.501843 91.998712 " stroke="#000000" stroke-width="4" stroke-opacity="1" stroke-miterlimit="4"/><path stroke-linecap="round" transform="matrix(0.770421, 0, 0, 0.771459, -25.440536, 125.19087)" fill="none" stroke-linejoin="round" d="M 95.497631 77.502024 C 89.1902 85.740275 84.799336 95.148185 79.500892 104.009241 C 78.502046 105.609295 77.812488 107.330871 76.980961 109.01194 " stroke="#000000" stroke-width="4" stroke-opacity="1" stroke-miterlimit="4"/><path stroke-linecap="round" transform="matrix(0.770421, 0, 0, 0.771459, -25.440536, 125.19087)" fill="none" stroke-linejoin="round" d="M 74.998481 42.999603 C 69.340047 53.799965 63.630909 64.559819 56.502093 74.499392 " stroke="#000000" stroke-width="4" stroke-opacity="1" stroke-miterlimit="4"/><g fill="#000000" fill-opacity="1"><g transform="translate(75.349629, 179.309293)"><g><path d="M 30.730469 8.003906 C 25.53125 8.207031 36.777344 -10.195312 27.867188 -10.984375 C 36.746094 -20.945312 43.875 -32.335938 44.722656 -25.617188 C 44.636719 -25.617188 45.015625 -25.589844 45.191406 -25.617188 C 44.050781 -33.710938 35.8125 -20.507812 27.3125 -11.070312 C 26.902344 -10.925781 26.933594 -10.984375 25.558594 -10.71875 C 28.21875 -18.898438 29.152344 -27.339844 24.390625 -27.957031 C 19.046875 -28.65625 13.144531 -21.644531 11.949219 -14.605469 C 5.257812 -17.703125 0.0273438 -11.773438 2.160156 -6.863281 L 2.921875 -6.863281 C 0.410156 -10.925781 4.761719 -17.234375 11.800781 -14.195312 C 10.75 -7.535156 13.117188 -4.671875 15.042969 -5.113281 C 17.207031 -5.402344 19.6875 -10.398438 12.503906 -14.460938 C 13.40625 -20.710938 18.988281 -27.898438 24.304688 -27.488281 C 27.691406 -27.226562 26.203125 -17.820312 22.902344 -8.5 C 19.25 1.8125 15.363281 10.222656 8.878906 9.933594 C 1.285156 9.582031 1.199219 -1.371094 12.269531 -4.324219 C 12.734375 -3.769531 13.582031 -4.820312 12.472656 -4.820312 C 0.0585938 -2.425781 0.117188 11.890625 10.953125 10.429688 C 19.28125 8.617188 22.8125 -3.007812 25.472656 -10.222656 C 26.085938 -10.398438 26.960938 -10.574219 27.664062 -10.515625 C 34.117188 -10.078125 22.695312 8.558594 30.4375 8.558594 C 33.59375 8.558594 37.976562 1.023438 44.3125 -6.894531 C 44.34375 -7.214844 43.933594 -7.097656 43.816406 -6.953125 C 38.761719 -0.789062 33.242188 7.917969 30.730469 8.003906 Z M 15.277344 -5.519531 C 13.816406 -5.023438 11.421875 -6.515625 12.328125 -13.964844 C 18.695312 -10.195312 16.855469 -6.046875 15.277344 -5.519531 Z M 15.277344 -5.519531 "/></g></g></g><g fill="#000000" fill-opacity="1"><g transform="translate(117.902516, 179.309293)"><g><path d="M 3.476562 0.730469 C 1.636719 1.226562 0.964844 -1.753906 2.832031 -6.777344 C 10.835938 -9.027344 8.414062 -14.519531 4.175781 -11.160156 C -0.234375 -7.652344 -1.285156 1.519531 3.476562 1.140625 C 6.222656 0.351562 10.457031 -4.761719 12.445312 -6.863281 C 12.472656 -7.011719 12.09375 -7.011719 11.949219 -6.894531 C 10.398438 -5.289062 6.015625 0.0585938 3.476562 0.730469 Z M 3.066406 -7.273438 C 3.886719 -8.96875 5.460938 -11.917969 7.128906 -11.773438 C 8.207031 -11.566406 8.355469 -8.820312 3.066406 -7.273438 Z M 3.066406 -7.273438 "/></g></g></g><g fill="#000000" fill-opacity="1"><g transform="translate(128.562638, 179.309293)"><g><path d="M 1.871094 -9.40625 C 0.144531 -5.257812 -1.257812 3.242188 2.101562 2.746094 C 3.332031 2.570312 6.046875 0 7.859375 -2.570312 C 10.3125 -1.988281 13.613281 -3.886719 16.359375 -6.835938 C 16.386719 -6.980469 15.890625 -6.953125 15.773438 -6.804688 C 13.847656 -4.671875 10.3125 -2.367188 8.148438 -3.007812 C 11.304688 -7.917969 11.625 -11.1875 9.757812 -11.597656 C 6.222656 -11.949219 3.828125 -4.789062 7.390625 -2.773438 C 5.34375 0.234375 3.066406 2.101562 2.191406 2.25 C 0.554688 2.511719 1.929688 -4.558594 4.03125 -9.609375 C 4.617188 -11.042969 2.542969 -11.042969 1.871094 -9.40625 Z M 7.683594 -3.214844 C 4.441406 -5.140625 6.894531 -11.421875 9.492188 -11.21875 C 11.304688 -10.867188 10.457031 -7.304688 7.683594 -3.214844 Z M 7.683594 -3.214844 "/></g></g></g><g fill="#000000" fill-opacity="1"><g transform="translate(143.019525, 179.309293)"><g><path d="M 3.214844 1.753906 C -0.933594 4.175781 2.425781 -4.730469 3.972656 -9.171875 C 4.382812 -10.371094 2.570312 -10.046875 1.695312 -8.472656 C 0.992188 -6.980469 -0.613281 -1.722656 -0.410156 0.410156 C -0.261719 2.863281 1.636719 3.300781 3.710938 1.898438 C 6.6875 -0.0585938 10.574219 -4.761719 12.5625 -6.863281 C 12.589844 -7.011719 12.210938 -7.011719 12.0625 -6.894531 C 10.515625 -5.289062 6.015625 0.0859375 3.214844 1.753906 Z M 3.886719 -11.773438 C 4.730469 -11.773438 5.492188 -13.90625 4.789062 -14.136719 C 3.621094 -14.253906 2.863281 -11.773438 3.886719 -11.773438 Z M 3.886719 -11.773438 "/></g></g></g><g fill="#000000" fill-opacity="1"><g transform="translate(153.854884, 179.309293)"><g><path d="M 3.621094 -8.9375 C 3.945312 -10.078125 2.132812 -9.347656 1.636719 -8.179688 C -0.117188 -2.890625 0.261719 -3.738281 -0.847656 -0.0585938 C -1.082031 0.671875 -0.0273438 1.316406 0.613281 0 L 1.664062 -2.949219 C 5.257812 -10.574219 9.320312 -13.90625 10.664062 -12.792969 C 11.976562 -11.714844 5.402344 0.203125 7.859375 1.605469 C 8.558594 1.988281 8.96875 1.988281 10.105469 1.226562 C 13.085938 -0.730469 16.707031 -4.761719 18.695312 -6.863281 C 18.722656 -7.011719 18.34375 -7.011719 18.199219 -6.894531 C 16.652344 -5.289062 12.445312 -0.496094 9.609375 1.082031 C 4.789062 3.738281 14.429688 -9.960938 11.011719 -13.144531 C 9.757812 -14.285156 6.398438 -12.386719 2.6875 -5.84375 C 3.007812 -6.804688 3.273438 -7.683594 3.621094 -8.9375 Z M 3.621094 -8.9375 "/></g></g></g><g fill="#000000" fill-opacity="1"><g transform="translate(170.61903, 179.309293)"><g/></g></g><g fill="#000000" fill-opacity="1"><g transform="translate(177.920484, 179.309293)"><g><path d="M 36.339844 -4.089844 C 31.664062 -2.335938 40.867188 -19.453125 40.105469 -23.691406 C 39.875 -24.828125 39.113281 -25.355469 37.886719 -24.683594 C 34.117188 -22.550781 27.019531 -10.546875 22.054688 -1.109375 C 26.347656 -12.355469 31.988281 -27.429688 24.390625 -27.957031 C 18.957031 -28.335938 13.144531 -21.644531 11.949219 -14.605469 C 5.257812 -17.703125 0.0273438 -11.773438 2.160156 -6.863281 L 2.921875 -6.863281 C 0.410156 -10.925781 4.761719 -17.234375 11.800781 -14.195312 C 10.75 -7.535156 12.792969 -4.730469 15.074219 -5.023438 C 17.234375 -5.316406 19.6875 -10.398438 12.503906 -14.460938 C 13.40625 -20.710938 19.046875 -28.101562 24.304688 -27.488281 C 33.972656 -26.378906 15.335938 5.257812 16.621094 10.222656 C 16.882812 11.304688 18.34375 11.21875 18.433594 9.902344 C 18.519531 8.589844 19.367188 6.632812 20.625 3.679688 C 26.496094 -10.019531 35.695312 -23.542969 38.148438 -24.273438 C 40.777344 -25.0625 29.472656 -5.433594 35.230469 -3.359375 C 37.976562 -2.367188 46.882812 -15.335938 51.96875 -22.023438 C 49.71875 -12.152344 38.734375 8.0625 44.285156 10.078125 C 47.4375 11.21875 57.898438 -1.8125 62.191406 -6.835938 C 62.21875 -6.980469 61.839844 -7.039062 61.695312 -6.894531 C 60 -5.289062 50.183594 7.683594 45.25 9.523438 C 40.195312 11.390625 55.09375 -18.578125 53.71875 -22.582031 C 53.542969 -23.078125 52.609375 -23.484375 51.296875 -21.9375 C 48.082031 -17.789062 39.523438 -5.289062 36.339844 -4.089844 Z M 15.308594 -5.433594 C 13.582031 -5.054688 11.421875 -6.515625 12.328125 -13.964844 C 18.695312 -10.195312 16.707031 -5.753906 15.308594 -5.433594 Z M 15.308594 -5.433594 "/></g></g></g><g fill="#000000" fill-opacity="1"><g transform="translate(238.347334, 179.309293)"><g><path d="M 7.59375 1.753906 C 2.921875 4.617188 8.324219 -8.355469 10.808594 -11.566406 C 11.128906 -12.269531 9.492188 -12.648438 8.675781 -11.363281 L 8.324219 -10.835938 C 6.804688 -11.539062 2.890625 -11.011719 1.226562 -6.980469 C 0.0273438 -4.117188 0.847656 -2.160156 2.335938 -2.484375 C 3.214844 -2.660156 4.441406 -4.441406 7.097656 -8.265625 C 4.234375 -3.15625 2.949219 5.257812 8.089844 1.898438 C 11.070312 -0.0585938 14.957031 -4.761719 16.941406 -6.863281 C 16.972656 -7.011719 16.59375 -7.011719 16.445312 -6.894531 C 14.898438 -5.289062 10.429688 0.117188 7.59375 1.753906 Z M 8.0625 -10.429688 C 6.132812 -7.710938 3.386719 -3.535156 2.660156 -3.066406 C 1.636719 -4.558594 4.644531 -11.890625 8.0625 -10.429688 Z M 8.0625 -10.429688 "/></g></g></g><g fill="#000000" fill-opacity="1"><g transform="translate(253.592769, 179.309293)"><g><path d="M 0.671875 2.542969 C 3.097656 -1.753906 8.003906 -9.726562 10.222656 -9.289062 C 11.65625 -8.996094 8.238281 -3.359375 7.59375 0.585938 C 7.332031 2.25 8.441406 3.332031 10.632812 1.898438 C 13.613281 -0.0585938 17.496094 -4.761719 19.484375 -6.863281 C 19.511719 -7.011719 19.132812 -7.011719 18.988281 -6.894531 C 17.4375 -5.289062 12.910156 0.0585938 10.136719 1.753906 C 8.820312 2.542969 8.589844 2.015625 9.171875 0.117188 C 10.164062 -3.273438 13.203125 -8.9375 10.398438 -9.667969 C 8.238281 -10.222656 4.5 -4.90625 0.90625 1.285156 C 2.015625 -2.542969 3.386719 -7.535156 3.886719 -8.703125 C 15.335938 -19.425781 14.75 -25.003906 11.800781 -25.003906 C 6.515625 -25.003906 1.519531 -10.488281 -1.34375 2.6875 C -1.546875 3.828125 0.117188 3.679688 0.671875 2.542969 Z M 4.117188 -9.464844 C 6.132812 -16.535156 9.667969 -24.421875 11.597656 -24.566406 C 14.109375 -24.769531 14.722656 -19.921875 4.117188 -9.464844 Z M 4.117188 -9.464844 "/></g></g></g><g fill="#000000" fill-opacity="1"><g transform="translate(271.203883, 179.309293)"><g><path d="M 7.59375 1.753906 C 2.921875 4.617188 8.324219 -8.355469 10.808594 -11.566406 C 11.128906 -12.269531 9.492188 -12.648438 8.675781 -11.363281 L 8.324219 -10.835938 C 6.804688 -11.539062 2.890625 -11.011719 1.226562 -6.980469 C 0.0273438 -4.117188 0.847656 -2.160156 2.335938 -2.484375 C 3.214844 -2.660156 4.441406 -4.441406 7.097656 -8.265625 C 4.234375 -3.15625 2.949219 5.257812 8.089844 1.898438 C 11.070312 -0.0585938 14.957031 -4.761719 16.941406 -6.863281 C 16.972656 -7.011719 16.59375 -7.011719 16.445312 -6.894531 C 14.898438 -5.289062 10.429688 0.117188 7.59375 1.753906 Z M 8.0625 -10.429688 C 6.132812 -7.710938 3.386719 -3.535156 2.660156 -3.066406 C 1.636719 -4.558594 4.644531 -11.890625 8.0625 -10.429688 Z M 8.0625 -10.429688 "/></g></g></g><g fill="#000000" fill-opacity="1"><g transform="translate(286.449318, 179.309293)"><g><path d="M 10.515625 -15.277344 C 10.605469 -14.867188 11.21875 -15.25 10.925781 -15.6875 C 10.429688 -16.535156 7.828125 -16.328125 5.785156 -15.804688 C 6.425781 -17.730469 7.1875 -19.835938 7.304688 -20.097656 C 7.828125 -21.441406 6.222656 -21.703125 5.492188 -20.183594 C 5.054688 -19.222656 4.265625 -16.941406 3.679688 -15.335938 C 2.042969 -14.75 0.4375 -14.519531 0 -15.015625 C -0.0585938 -15.714844 -0.964844 -14.925781 -0.320312 -14.636719 C 0.585938 -14.136719 2.074219 -14.371094 3.535156 -14.898438 C 1.78125 -9.902344 -1.167969 -0.964844 -0.261719 3.007812 C 0.0585938 4.410156 1.316406 5.84375 3.125 4.644531 C 6.632812 2.335938 11.070312 -4.761719 13.058594 -6.863281 C 13.085938 -7.011719 12.707031 -7.011719 12.5625 -6.894531 C 11.011719 -5.289062 5.84375 2.714844 2.773438 4.410156 C 1.257812 5.199219 0.757812 3.796875 0.757812 2.542969 C 0.816406 -0.554688 3.652344 -9.757812 5.636719 -15.363281 C 8.675781 -16.09375 10.339844 -15.980469 10.515625 -15.277344 Z M 10.515625 -15.277344 "/></g></g></g><g fill="#000000" fill-opacity="1"><g transform="translate(297.664355, 179.309293)"><g><path d="M 13.117188 0.410156 C 13.640625 -2.191406 16.066406 -5.753906 17.175781 -8.53125 C 18.109375 -10.894531 16.707031 -11.332031 16.09375 -11.277344 C 13.234375 -10.953125 9.144531 -3.796875 7.535156 -1.578125 C 9.699219 -6.132812 11.917969 -11.160156 8.96875 -11.363281 C 6.28125 -11.246094 4.324219 -7.449219 0.90625 -0.789062 C 1.871094 -3.535156 2.101562 -4.351562 3.300781 -7.359375 C 3.621094 -8.648438 1.546875 -8.089844 1.199219 -7.039062 C -0.320312 -2.484375 -1.050781 -0.175781 -1.664062 2.160156 C -1.957031 3.359375 -0.144531 2.714844 0.175781 1.957031 C 4.410156 -6.953125 6.894531 -11.011719 8.878906 -10.984375 C 9.699219 -10.953125 6.339844 -4.117188 6.132812 -1.34375 C 6.046875 -0.410156 6.804688 -0.117188 7.476562 -0.789062 C 10.046875 -4.441406 14.078125 -11.101562 16.210938 -10.867188 C 16.855469 -10.632812 11.976562 -3.621094 11.976562 0.4375 C 11.976562 2.921875 14.195312 3.300781 16.269531 1.898438 C 19.25 -0.0585938 23.136719 -4.761719 25.121094 -6.863281 C 25.152344 -7.011719 24.769531 -7.011719 24.625 -6.894531 C 23.078125 -5.289062 18.578125 0.0859375 15.773438 1.753906 C 13.90625 2.832031 12.765625 2.101562 13.117188 0.410156 Z M 13.117188 0.410156 "/></g></g></g><g fill="#000000" fill-opacity="1"><g transform="translate(320.941395, 179.309293)"><g><path d="M 7.59375 1.753906 C 2.921875 4.617188 8.324219 -8.355469 10.808594 -11.566406 C 11.128906 -12.269531 9.492188 -12.648438 8.675781 -11.363281 L 8.324219 -10.835938 C 6.804688 -11.539062 2.890625 -11.011719 1.226562 -6.980469 C 0.0273438 -4.117188 0.847656 -2.160156 2.335938 -2.484375 C 3.214844 -2.660156 4.441406 -4.441406 7.097656 -8.265625 C 4.234375 -3.15625 2.949219 5.257812 8.089844 1.898438 C 11.070312 -0.0585938 14.957031 -4.761719 16.941406 -6.863281 C 16.972656 -7.011719 16.59375 -7.011719 16.445312 -6.894531 C 14.898438 -5.289062 10.429688 0.117188 7.59375 1.753906 Z M 8.0625 -10.429688 C 6.132812 -7.710938 3.386719 -3.535156 2.660156 -3.066406 C 1.636719 -4.558594 4.644531 -11.890625 8.0625 -10.429688 Z M 8.0625 -10.429688 "/></g></g></g><g fill="#000000" fill-opacity="1"><g transform="translate(75.349629, 211.917812)"><g><path d="M 2.703125 -9.125 L 2.703125 -5.1875 L 7.890625 -5.1875 L 7.890625 -4.265625 L 2.703125 -4.265625 L 2.703125 0 L 1.640625 0 L 1.640625 -10.046875 L 8.53125 -10.046875 L 8.53125 -9.125 Z M 2.703125 -9.125 "/></g></g></g><g fill="#000000" fill-opacity="1"><g transform="translate(88.829276, 211.917812)"><g><path d="M 1.640625 -10.046875 L 2.703125 -10.046875 L 2.703125 0 L 1.640625 0 Z M 1.640625 -10.046875 "/></g></g></g><g fill="#000000" fill-opacity="1"><g transform="translate(97.557546, 211.917812)"><g><path d="M 1.640625 -10.046875 L 2.703125 -10.046875 L 2.703125 -0.921875 L 8.328125 -0.921875 L 8.328125 0 L 1.640625 0 Z M 1.640625 -10.046875 "/></g></g></g><g fill="#000000" fill-opacity="1"><g transform="translate(110.405586, 211.917812)"><g><path d="M 12.078125 -10.046875 L 12.078125 0 L 11.0625 0 L 11.0625 -8.046875 L 7.109375 -1.28125 L 6.609375 -1.28125 L 2.65625 -8 L 2.65625 0 L 1.640625 0 L 1.640625 -10.046875 L 2.515625 -10.046875 L 6.875 -2.59375 L 11.203125 -10.046875 Z M 12.078125 -10.046875 "/></g></g></g><g fill="#000000" fill-opacity="1"><g transform="translate(128.507411, 211.917812)"><g/></g></g><g fill="#000000" fill-opacity="1"><g transform="translate(136.661494, 211.917812)"><g><path d="M 7.9375 -2.6875 L 2.34375 -2.6875 L 1.140625 0 L 0.03125 0 L 4.625 -10.046875 L 5.671875 -10.046875 L 10.265625 0 L 9.140625 0 Z M 7.546875 -3.546875 L 5.140625 -8.953125 L 2.734375 -3.546875 Z M 7.546875 -3.546875 "/></g></g></g><g fill="#000000" fill-opacity="1"><g transform="translate(151.346926, 211.917812)"><g><path d="M 10.03125 -10.046875 L 10.03125 0 L 9.15625 0 L 2.703125 -8.15625 L 2.703125 0 L 1.640625 0 L 1.640625 -10.046875 L 2.515625 -10.046875 L 8.984375 -1.890625 L 8.984375 -10.046875 Z M 10.03125 -10.046875 "/></g></g></g><g fill="#000000" fill-opacity="1"><g transform="translate(167.4104, 211.917812)"><g><path d="M 1.640625 -10.046875 L 5.734375 -10.046875 C 6.796875 -10.046875 7.734375 -9.832031 8.546875 -9.40625 C 9.359375 -8.988281 9.988281 -8.394531 10.4375 -7.625 C 10.882812 -6.863281 11.109375 -6 11.109375 -5.03125 C 11.109375 -4.050781 10.882812 -3.179688 10.4375 -2.421875 C 9.988281 -1.660156 9.359375 -1.066406 8.546875 -0.640625 C 7.734375 -0.210938 6.796875 0 5.734375 0 L 1.640625 0 Z M 5.671875 -0.921875 C 6.554688 -0.921875 7.328125 -1.09375 7.984375 -1.4375 C 8.640625 -1.789062 9.148438 -2.273438 9.515625 -2.890625 C 9.878906 -3.503906 10.0625 -4.21875 10.0625 -5.03125 C 10.0625 -5.832031 9.878906 -6.539062 9.515625 -7.15625 C 9.148438 -7.769531 8.640625 -8.25 7.984375 -8.59375 C 7.328125 -8.945312 6.554688 -9.125 5.671875 -9.125 L 2.703125 -9.125 L 2.703125 -0.921875 Z M 5.671875 -0.921875 "/></g></g></g><g fill="#000000" fill-opacity="1"><g transform="translate(183.660486, 211.917812)"><g/></g></g><g fill="#000000" fill-opacity="1"><g transform="translate(191.814568, 211.917812)"><g><path d="M 5.40625 -10.046875 C 6.6875 -10.046875 7.6875 -9.738281 8.40625 -9.125 C 9.132812 -8.519531 9.5 -7.679688 9.5 -6.609375 C 9.5 -5.535156 9.132812 -4.691406 8.40625 -4.078125 C 7.6875 -3.472656 6.6875 -3.171875 5.40625 -3.171875 L 2.703125 -3.171875 L 2.703125 0 L 1.640625 0 L 1.640625 -10.046875 Z M 5.375 -4.109375 C 6.363281 -4.109375 7.117188 -4.320312 7.640625 -4.75 C 8.171875 -5.1875 8.4375 -5.804688 8.4375 -6.609375 C 8.4375 -7.421875 8.171875 -8.039062 7.640625 -8.46875 C 7.117188 -8.90625 6.363281 -9.125 5.375 -9.125 L 2.703125 -9.125 L 2.703125 -4.109375 Z M 5.375 -4.109375 "/></g></g></g><g fill="#000000" fill-opacity="1"><g transform="translate(206.514354, 211.917812)"><g><path d="M 10.03125 -10.046875 L 10.03125 0 L 8.984375 0 L 8.984375 -4.640625 L 2.703125 -4.640625 L 2.703125 0 L 1.640625 0 L 1.640625 -10.046875 L 2.703125 -10.046875 L 2.703125 -5.578125 L 8.984375 -5.578125 L 8.984375 -10.046875 Z M 10.03125 -10.046875 "/></g></g></g><g fill="#000000" fill-opacity="1"><g transform="translate(222.577829, 211.917812)"><g><path d="M 6.03125 0.09375 C 5.03125 0.09375 4.125 -0.128906 3.3125 -0.578125 C 2.507812 -1.023438 1.878906 -1.632812 1.421875 -2.40625 C 0.972656 -3.1875 0.75 -4.0625 0.75 -5.03125 C 0.75 -5.988281 0.972656 -6.851562 1.421875 -7.625 C 1.878906 -8.40625 2.507812 -9.019531 3.3125 -9.46875 C 4.125 -9.914062 5.03125 -10.140625 6.03125 -10.140625 C 7.03125 -10.140625 7.925781 -9.914062 8.71875 -9.46875 C 9.519531 -9.03125 10.148438 -8.421875 10.609375 -7.640625 C 11.066406 -6.859375 11.296875 -5.988281 11.296875 -5.03125 C 11.296875 -4.0625 11.066406 -3.1875 10.609375 -2.40625 C 10.148438 -1.625 9.519531 -1.007812 8.71875 -0.5625 C 7.925781 -0.125 7.03125 0.09375 6.03125 0.09375 Z M 6.03125 -0.859375 C 6.820312 -0.859375 7.535156 -1.035156 8.171875 -1.390625 C 8.816406 -1.753906 9.320312 -2.253906 9.6875 -2.890625 C 10.050781 -3.523438 10.234375 -4.238281 10.234375 -5.03125 C 10.234375 -5.8125 10.050781 -6.519531 9.6875 -7.15625 C 9.320312 -7.789062 8.816406 -8.285156 8.171875 -8.640625 C 7.535156 -9.003906 6.820312 -9.1875 6.03125 -9.1875 C 5.238281 -9.1875 4.519531 -9.003906 3.875 -8.640625 C 3.226562 -8.285156 2.71875 -7.789062 2.34375 -7.15625 C 1.976562 -6.519531 1.796875 -5.8125 1.796875 -5.03125 C 1.796875 -4.238281 1.976562 -3.523438 2.34375 -2.890625 C 2.71875 -2.253906 3.226562 -1.753906 3.875 -1.390625 C 4.519531 -1.035156 5.238281 -0.859375 6.03125 -0.859375 Z M 6.03125 -0.859375 "/></g></g></g><g fill="#000000" fill-opacity="1"><g transform="translate(239.014517, 211.917812)"><g><path d="M 3.59375 -9.125 L 0.0625 -9.125 L 0.0625 -10.046875 L 8.1875 -10.046875 L 8.1875 -9.125 L 4.65625 -9.125 L 4.65625 0 L 3.59375 0 Z M 3.59375 -9.125 "/></g></g></g><g fill="#000000" fill-opacity="1"><g transform="translate(251.647232, 211.917812)"><g><path d="M 6.03125 0.09375 C 5.03125 0.09375 4.125 -0.128906 3.3125 -0.578125 C 2.507812 -1.023438 1.878906 -1.632812 1.421875 -2.40625 C 0.972656 -3.1875 0.75 -4.0625 0.75 -5.03125 C 0.75 -5.988281 0.972656 -6.851562 1.421875 -7.625 C 1.878906 -8.40625 2.507812 -9.019531 3.3125 -9.46875 C 4.125 -9.914062 5.03125 -10.140625 6.03125 -10.140625 C 7.03125 -10.140625 7.925781 -9.914062 8.71875 -9.46875 C 9.519531 -9.03125 10.148438 -8.421875 10.609375 -7.640625 C 11.066406 -6.859375 11.296875 -5.988281 11.296875 -5.03125 C 11.296875 -4.0625 11.066406 -3.1875 10.609375 -2.40625 C 10.148438 -1.625 9.519531 -1.007812 8.71875 -0.5625 C 7.925781 -0.125 7.03125 0.09375 6.03125 0.09375 Z M 6.03125 -0.859375 C 6.820312 -0.859375 7.535156 -1.035156 8.171875 -1.390625 C 8.816406 -1.753906 9.320312 -2.253906 9.6875 -2.890625 C 10.050781 -3.523438 10.234375 -4.238281 10.234375 -5.03125 C 10.234375 -5.8125 10.050781 -6.519531 9.6875 -7.15625 C 9.320312 -7.789062 8.816406 -8.285156 8.171875 -8.640625 C 7.535156 -9.003906 6.820312 -9.1875 6.03125 -9.1875 C 5.238281 -9.1875 4.519531 -9.003906 3.875 -8.640625 C 3.226562 -8.285156 2.71875 -7.789062 2.34375 -7.15625 C 1.976562 -6.519531 1.796875 -5.8125 1.796875 -5.03125 C 1.796875 -4.238281 1.976562 -3.523438 2.34375 -2.890625 C 2.71875 -2.253906 3.226562 -1.753906 3.875 -1.390625 C 4.519531 -1.035156 5.238281 -0.859375 6.03125 -0.859375 Z M 6.03125 -0.859375 "/></g></g></g><g fill="#000000" fill-opacity="1"><g transform="translate(268.083921, 211.917812)"><g><path d="M 8.71875 -5.03125 L 9.734375 -5.03125 L 9.734375 -1.1875 C 9.265625 -0.78125 8.707031 -0.460938 8.0625 -0.234375 C 7.425781 -0.015625 6.753906 0.09375 6.046875 0.09375 C 5.035156 0.09375 4.128906 -0.125 3.328125 -0.5625 C 2.523438 -1.007812 1.894531 -1.625 1.4375 -2.40625 C 0.976562 -3.1875 0.75 -4.0625 0.75 -5.03125 C 0.75 -5.988281 0.976562 -6.859375 1.4375 -7.640625 C 1.894531 -8.421875 2.523438 -9.03125 3.328125 -9.46875 C 4.128906 -9.914062 5.039062 -10.140625 6.0625 -10.140625 C 6.820312 -10.140625 7.519531 -10.015625 8.15625 -9.765625 C 8.800781 -9.523438 9.347656 -9.164062 9.796875 -8.6875 L 9.125 -8.015625 C 8.332031 -8.796875 7.328125 -9.1875 6.109375 -9.1875 C 5.285156 -9.1875 4.546875 -9.003906 3.890625 -8.640625 C 3.242188 -8.285156 2.734375 -7.789062 2.359375 -7.15625 C 1.984375 -6.519531 1.796875 -5.8125 1.796875 -5.03125 C 1.796875 -4.238281 1.984375 -3.523438 2.359375 -2.890625 C 2.734375 -2.265625 3.242188 -1.769531 3.890625 -1.40625 C 4.546875 -1.039062 5.28125 -0.859375 6.09375 -0.859375 C 7.125 -0.859375 8 -1.117188 8.71875 -1.640625 Z M 8.71875 -5.03125 "/></g></g></g><g fill="#000000" fill-opacity="1"><g transform="translate(283.573207, 211.917812)"><g><path d="M 8.5 0 L 6.203125 -3.234375 C 5.941406 -3.203125 5.675781 -3.1875 5.40625 -3.1875 L 2.703125 -3.1875 L 2.703125 0 L 1.640625 0 L 1.640625 -10.046875 L 5.40625 -10.046875 C 6.6875 -10.046875 7.6875 -9.738281 8.40625 -9.125 C 9.132812 -8.519531 9.5 -7.679688 9.5 -6.609375 C 9.5 -5.816406 9.300781 -5.148438 8.90625 -4.609375 C 8.507812 -4.078125 7.941406 -3.691406 7.203125 -3.453125 L 9.65625 0 Z M 5.375 -4.09375 C 6.363281 -4.09375 7.117188 -4.3125 7.640625 -4.75 C 8.171875 -5.1875 8.4375 -5.804688 8.4375 -6.609375 C 8.4375 -7.421875 8.171875 -8.039062 7.640625 -8.46875 C 7.117188 -8.90625 6.363281 -9.125 5.375 -9.125 L 2.703125 -9.125 L 2.703125 -4.09375 Z M 5.375 -4.09375 "/></g></g></g><g fill="#000000" fill-opacity="1"><g transform="translate(298.344755, 211.917812)"><g><path d="M 7.9375 -2.6875 L 2.34375 -2.6875 L 1.140625 0 L 0.03125 0 L 4.625 -10.046875 L 5.671875 -10.046875 L 10.265625 0 L 9.140625 0 Z M 7.546875 -3.546875 L 5.140625 -8.953125 L 2.734375 -3.546875 Z M 7.546875 -3.546875 "/></g></g></g><g fill="#000000" fill-opacity="1"><g transform="translate(313.030179, 211.917812)"><g><path d="M 5.40625 -10.046875 C 6.6875 -10.046875 7.6875 -9.738281 8.40625 -9.125 C 9.132812 -8.519531 9.5 -7.679688 9.5 -6.609375 C 9.5 -5.535156 9.132812 -4.691406 8.40625 -4.078125 C 7.6875 -3.472656 6.6875 -3.171875 5.40625 -3.171875 L 2.703125 -3.171875 L 2.703125 0 L 1.640625 0 L 1.640625 -10.046875 Z M 5.375 -4.109375 C 6.363281 -4.109375 7.117188 -4.320312 7.640625 -4.75 C 8.171875 -5.1875 8.4375 -5.804688 8.4375 -6.609375 C 8.4375 -7.421875 8.171875 -8.039062 7.640625 -8.46875 C 7.117188 -8.90625 6.363281 -9.125 5.375 -9.125 L 2.703125 -9.125 L 2.703125 -4.109375 Z M 5.375 -4.109375 "/></g></g></g><g fill="#000000" fill-opacity="1"><g transform="translate(327.729965, 211.917812)"><g><path d="M 10.03125 -10.046875 L 10.03125 0 L 8.984375 0 L 8.984375 -4.640625 L 2.703125 -4.640625 L 2.703125 0 L 1.640625 0 L 1.640625 -10.046875 L 2.703125 -10.046875 L 2.703125 -5.578125 L 8.984375 -5.578125 L 8.984375 -10.046875 Z M 10.03125 -10.046875 "/></g></g></g><g fill="#000000" fill-opacity="1"><g transform="translate(343.79343, 211.917812)"><g><path d="M 5.078125 -3.46875 L 5.078125 0 L 4.03125 0 L 4.03125 -3.46875 L 0.015625 -10.046875 L 1.15625 -10.046875 L 4.59375 -4.40625 L 8.046875 -10.046875 L 9.109375 -10.046875 Z M 5.078125 -3.46875 "/></g></g></g><path stroke-linecap="round" transform="matrix(0.000000000000000092, -1.501104, 1.371429, 0.000000000000000084, 69.734297, 215.42707)" fill="none" stroke-linejoin="miter" d="M 0.500491 0.0000570786 L 41.97258 0.0000570786 " stroke="#000000" stroke-width="1" stroke-opacity="1" stroke-miterlimit="4"/></svg>